<svg id="Layer_1" data-name="Layer 1" xmlns="http://www.w3.org/2000/svg" xmlns:xlink="http://www.w3.org/1999/xlink" viewBox="0 0 4096 3112"><defs><style>.cls-1{fill:#6bcbdc;}.cls-102,.cls-103,.cls-106,.cls-110,.cls-111,.cls-112,.cls-113,.cls-114,.cls-115,.cls-116,.cls-117,.cls-118,.cls-119,.cls-120,.cls-121,.cls-122,.cls-123,.cls-124,.cls-125,.cls-126,.cls-127,.cls-128,.cls-129,.cls-130,.cls-131,.cls-132,.cls-133,.cls-134,.cls-135,.cls-136,.cls-137,.cls-148,.cls-150,.cls-152,.cls-154,.cls-156,.cls-158,.cls-2,.cls-72{fill:none;}.cls-3{clip-path:url(#clip-path);}.cls-4{fill:url(#radial-gradient);}.cls-5{fill:#1dabc8;}.cls-5,.cls-6{fill-opacity:0.3;}.cls-6{fill:url(#linear-gradient);}.cls-7{opacity:0.48;}.cls-8{fill:url(#linear-gradient-2);}.cls-9{fill:url(#linear-gradient-3);}.cls-10{fill:url(#linear-gradient-4);}.cls-11,.cls-82,.cls-84{fill:#fff;}.cls-12{fill:url(#linear-gradient-5);}.cls-13{fill:url(#linear-gradient-6);}.cls-14{fill:url(#linear-gradient-7);}.cls-15,.cls-22,.cls-28,.cls-49,.cls-50,.cls-82,.cls-84{fill-rule:evenodd;}.cls-15{fill:url(#linear-gradient-8);}.cls-16{fill:url(#linear-gradient-9);}.cls-17{fill:url(#linear-gradient-10);}.cls-18{fill:url(#linear-gradient-11);}.cls-19{fill:url(#linear-gradient-12);}.cls-20{fill:url(#linear-gradient-13);}.cls-21{fill:url(#linear-gradient-14);}.cls-22{fill:#231f20;}.cls-23{fill:url(#linear-gradient-15);}.cls-24{fill:url(#linear-gradient-16);}.cls-25{fill:url(#linear-gradient-17);}.cls-26{fill:url(#linear-gradient-18);}.cls-27{fill:url(#linear-gradient-19);}.cls-28{fill:#f79d85;}.cls-29{fill:url(#linear-gradient-20);}.cls-30{fill:url(#linear-gradient-21);}.cls-31{fill:url(#linear-gradient-22);}.cls-32{fill:url(#linear-gradient-23);}.cls-33{fill:url(#linear-gradient-24);}.cls-34{fill:url(#linear-gradient-25);}.cls-35{fill:url(#linear-gradient-26);}.cls-36{fill:url(#linear-gradient-27);}.cls-37{fill:url(#linear-gradient-28);}.cls-38{fill:url(#linear-gradient-29);}.cls-39{fill:url(#linear-gradient-30);}.cls-40{fill:url(#linear-gradient-31);}.cls-41{fill:url(#linear-gradient-32);}.cls-42{fill:url(#linear-gradient-33);}.cls-43{fill:url(#linear-gradient-34);}.cls-44{fill:url(#linear-gradient-35);}.cls-45{fill:url(#linear-gradient-36);}.cls-46{fill:url(#linear-gradient-37);}.cls-47{fill:url(#linear-gradient-38);}.cls-48{fill:url(#linear-gradient-39);}.cls-49{fill:url(#linear-gradient-40);}.cls-50{fill:url(#linear-gradient-41);}.cls-51{fill:url(#radial-gradient-2);}.cls-52{fill:url(#linear-gradient-42);}.cls-53{fill:url(#linear-gradient-43);}.cls-54{fill:url(#linear-gradient-44);}.cls-55{fill:url(#linear-gradient-45);}.cls-56{fill:url(#linear-gradient-46);}.cls-57{fill:url(#linear-gradient-47);}.cls-58{fill:url(#linear-gradient-48);}.cls-59{fill:url(#linear-gradient-49);}.cls-60{fill:url(#linear-gradient-50);}.cls-61{fill:url(#linear-gradient-51);}.cls-62{fill:url(#linear-gradient-52);}.cls-63{fill:url(#linear-gradient-53);}.cls-64{fill:url(#linear-gradient-54);}.cls-65{fill:url(#linear-gradient-55);}.cls-66{fill:url(#linear-gradient-56);}.cls-67{fill:url(#linear-gradient-57);}.cls-68{fill:url(#linear-gradient-58);}.cls-69{fill:url(#linear-gradient-59);}.cls-70{fill:url(#linear-gradient-60);}.cls-71{fill:url(#linear-gradient-61);}.cls-72{stroke-width:4.76px;stroke:url(#linear-gradient-62);}.cls-73{fill:url(#linear-gradient-63);}.cls-74{fill:url(#linear-gradient-64);}.cls-75{fill:url(#linear-gradient-65);}.cls-76{fill:url(#linear-gradient-66);}.cls-77{opacity:0.73;}.cls-78{fill:url(#linear-gradient-67);}.cls-79{fill:url(#linear-gradient-68);}.cls-80{fill:url(#linear-gradient-69);}.cls-81{fill:url(#linear-gradient-70);}.cls-82{opacity:0.5;}.cls-148,.cls-150,.cls-152,.cls-154,.cls-156,.cls-82{isolation:isolate;}.cls-83{fill:url(#linear-gradient-71);}.cls-85{fill:url(#linear-gradient-72);}.cls-86{fill:url(#linear-gradient-73);}.cls-87{fill:url(#linear-gradient-74);}.cls-88{fill:url(#linear-gradient-75);}.cls-89{fill:url(#linear-gradient-76);}.cls-90{fill:url(#linear-gradient-77);}.cls-91{fill:url(#linear-gradient-78);}.cls-92{fill:url(#linear-gradient-79);}.cls-93{fill:url(#linear-gradient-80);}.cls-94{fill:url(#linear-gradient-81);}.cls-95{fill:url(#linear-gradient-82);}.cls-96{fill:url(#linear-gradient-83);}.cls-97{fill:url(#linear-gradient-84);}.cls-98{fill:url(#linear-gradient-85);}.cls-99{fill:url(#linear-gradient-86);}.cls-100{fill:url(#linear-gradient-87);}.cls-101{fill:url(#linear-gradient-88);}.cls-102,.cls-103,.cls-106,.cls-110,.cls-111,.cls-112,.cls-113,.cls-114,.cls-115,.cls-116,.cls-117,.cls-118,.cls-119,.cls-120,.cls-121,.cls-122,.cls-123,.cls-124,.cls-125,.cls-126,.cls-127,.cls-128,.cls-129,.cls-130,.cls-131,.cls-132,.cls-133,.cls-134,.cls-135,.cls-136,.cls-137,.cls-148,.cls-150,.cls-152,.cls-154,.cls-156,.cls-158{stroke-linecap:round;}.cls-102,.cls-110,.cls-111,.cls-112,.cls-113,.cls-114,.cls-115,.cls-116,.cls-117,.cls-118,.cls-119,.cls-120,.cls-121,.cls-122,.cls-123,.cls-124,.cls-125,.cls-126,.cls-127,.cls-128,.cls-129,.cls-130,.cls-131,.cls-132,.cls-133,.cls-134,.cls-135,.cls-136,.cls-137,.cls-148,.cls-150,.cls-152,.cls-154,.cls-156,.cls-158{stroke-miterlimit:10;}.cls-102{stroke-width:3.18px;stroke:url(#linear-gradient-89);}.cls-103,.cls-106{stroke-width:1.59px;}.cls-103{stroke:url(#linear-gradient-90);}.cls-104{fill:#6ec06f;}.cls-105{fill:#6dbe45;}.cls-106{stroke:url(#linear-gradient-91);}.cls-107{fill:#f99b2c;}.cls-108{clip-path:url(#clip-path-2);}.cls-109{mask:url(#mask);}.cls-110,.cls-111,.cls-112,.cls-113,.cls-114,.cls-115,.cls-116,.cls-117,.cls-118,.cls-119,.cls-120,.cls-121,.cls-122,.cls-123,.cls-158{stroke-width:2px;}.cls-110{stroke:url(#linear-gradient-92);}.cls-111{stroke:url(#linear-gradient-93);}.cls-112{stroke:url(#linear-gradient-94);}.cls-113{stroke:url(#linear-gradient-95);}.cls-114{stroke:url(#linear-gradient-96);}.cls-115{stroke:url(#linear-gradient-97);}.cls-116{stroke:url(#linear-gradient-98);}.cls-117{stroke:url(#linear-gradient-99);}.cls-118{stroke:url(#linear-gradient-100);}.cls-119{stroke:url(#linear-gradient-101);}.cls-120{stroke:url(#linear-gradient-102);}.cls-121{stroke:url(#linear-gradient-103);}.cls-122{stroke:url(#linear-gradient-104);}.cls-123{stroke:url(#linear-gradient-105);}.cls-124{stroke:url(#linear-gradient-106);}.cls-125{stroke:url(#linear-gradient-107);}.cls-126{stroke:url(#linear-gradient-108);}.cls-127{stroke:url(#linear-gradient-109);}.cls-128{stroke:url(#linear-gradient-110);}.cls-129{stroke:url(#linear-gradient-111);}.cls-130{stroke:url(#linear-gradient-112);}.cls-131{stroke:url(#linear-gradient-113);}.cls-132{stroke:url(#linear-gradient-114);}.cls-133{stroke:url(#linear-gradient-115);}.cls-134{stroke:url(#linear-gradient-116);}.cls-135{stroke:url(#linear-gradient-117);}.cls-136{stroke:url(#linear-gradient-118);}.cls-137{stroke:url(#linear-gradient-119);}.cls-138{fill:url(#radial-gradient-3);}.cls-139{fill:url(#radial-gradient-4);}.cls-140{fill:#68cbe3;}.cls-141{fill:url(#radial-gradient-5);}.cls-142{fill:url(#radial-gradient-6);}.cls-143{fill:url(#radial-gradient-7);}.cls-144{fill:url(#radial-gradient-8);}.cls-145{opacity:0.66;}.cls-146{fill:url(#linear-gradient-120);}.cls-147{fill:url(#radial-gradient-9);}.cls-148,.cls-154{stroke-width:1.5px;}.cls-148,.cls-150,.cls-152,.cls-154,.cls-156{opacity:0.6;}.cls-148{stroke:url(#linear-gradient-121);}.cls-149{fill:url(#radial-gradient-10);}.cls-150,.cls-152,.cls-156{stroke-width:0.5px;}.cls-150{stroke:url(#linear-gradient-122);}.cls-151{fill:url(#radial-gradient-11);}.cls-152{stroke:url(#linear-gradient-123);}.cls-153{fill:url(#radial-gradient-12);}.cls-154{stroke:url(#linear-gradient-124);}.cls-155{fill:url(#radial-gradient-13);}.cls-156{stroke:url(#linear-gradient-125);}.cls-157{fill:url(#linear-gradient-126);}.cls-158{stroke:url(#linear-gradient-127);}.cls-159{fill:#fafbfb;}</style><clipPath id="clip-path"><rect class="cls-2" x="-504.69" width="4967.29" height="3237.81"/></clipPath><radialGradient id="radial-gradient" cx="3151.81" cy="899.96" r="1" gradientTransform="matrix(3449.5, 3597.56, 5113.18, -5332.66, -15472773.35, -6540347.73)" gradientUnits="userSpaceOnUse"><stop offset="0" stop-color="#21409a"/><stop offset="0.52" stop-color="#26387d"/><stop offset="1" stop-color="#21409a"/></radialGradient><linearGradient id="linear-gradient" x1="4789.16" y1="-1021.68" x2="3726.37" y2="-3056.53" gradientTransform="matrix(1, 0, 0, -1, 0, 958.33)" gradientUnits="userSpaceOnUse"><stop offset="0" stop-color="#4dbfab"/><stop offset="1" stop-color="#4dbfab" stop-opacity="0"/></linearGradient><linearGradient id="linear-gradient-2" x1="2728.06" y1="1008.56" x2="2716.74" y2="-170.76" gradientTransform="matrix(1, 0, 0, -1, 0, 958.33)" gradientUnits="userSpaceOnUse"><stop offset="0.05" stop-color="#bbe2f8" stop-opacity="0"/><stop offset="1" stop-color="#bbe2f8" stop-opacity="0.25"/></linearGradient><linearGradient id="linear-gradient-3" x1="2438.71" y1="-373.03" x2="2900.09" y2="-381.2" gradientTransform="matrix(1, 0, 0, -1, 0, 958.33)" gradientUnits="userSpaceOnUse"><stop offset="0" stop-color="#d5effc" stop-opacity="0.01"/><stop offset="0.91" stop-color="#9ad0f1" stop-opacity="0.74"/></linearGradient><linearGradient id="linear-gradient-4" x1="2615.86" y1="-106.88" x2="2744.03" y2="-283.26" gradientTransform="matrix(1, 0, 0, -1, 0, 958.33)" gradientUnits="userSpaceOnUse"><stop offset="0.13" stop-color="#cdebfa"/><stop offset="0.91" stop-color="#5acaec"/></linearGradient><linearGradient id="linear-gradient-5" x1="2590.19" y1="-311.79" x2="2647.66" y2="-589.1" gradientTransform="matrix(1, 0, 0, -1, 0, 958.33)" gradientUnits="userSpaceOnUse"><stop offset="0" stop-color="#87cdac"/><stop offset="0.63" stop-color="#2eb784"/></linearGradient><linearGradient id="linear-gradient-6" x1="2640.37" y1="-271.82" x2="2761.62" y2="-570.57" gradientTransform="matrix(1, 0, 0, -1, 0, 958.33)" gradientUnits="userSpaceOnUse"><stop offset="0.18" stop-color="#feeb82"/><stop offset="1" stop-color="#d76827"/></linearGradient><linearGradient id="linear-gradient-7" x1="2806.83" y1="-276.21" x2="2806.83" y2="-565.7" gradientTransform="matrix(1, 0, 0, -1, 0, 958.33)" gradientUnits="userSpaceOnUse"><stop offset="0.09" stop-color="#5dace0"/><stop offset="0.86" stop-color="#4773b8"/></linearGradient><linearGradient id="linear-gradient-8" x1="2702.56" y1="-219.29" x2="2711.53" y2="-385.79" xlink:href="#linear-gradient-6"/><linearGradient id="linear-gradient-9" x1="2597.01" y1="-331.16" x2="2611.12" y2="-339.26" xlink:href="#linear-gradient-6"/><linearGradient id="linear-gradient-10" x1="2693.92" y1="-353.27" x2="2708.04" y2="-361.26" xlink:href="#linear-gradient-6"/><linearGradient id="linear-gradient-11" x1="2797.53" y1="-276.89" x2="2811.26" y2="-285.38" xlink:href="#linear-gradient-6"/><linearGradient id="linear-gradient-12" x1="3158.18" y1="-1313.65" x2="3319.54" y2="-1003.81" gradientTransform="matrix(1, 0, 0, -1, 0, 958.33)" gradientUnits="userSpaceOnUse"><stop offset="0.06" stop-color="#e1f4fd"/><stop offset="1" stop-color="#a5d1f0"/></linearGradient><linearGradient id="linear-gradient-13" x1="3280.26" y1="-1297.79" x2="3461.7" y2="-1251.85" gradientTransform="matrix(1, 0, 0, -1, 0, 958.33)" gradientUnits="userSpaceOnUse"><stop offset="0.32" stop-color="#479bd5"/><stop offset="0.86" stop-color="#4773b8"/></linearGradient><linearGradient id="linear-gradient-14" x1="2909.19" y1="-716.81" x2="2945.12" y2="-722.57" gradientTransform="matrix(1, 0, 0, -1, 0, 958.33)" gradientUnits="userSpaceOnUse"><stop offset="0.15" stop-color="#c3e8fb"/><stop offset="0.88" stop-color="#fabaa7"/></linearGradient><linearGradient id="linear-gradient-15" x1="3204.62" y1="-935.09" x2="2859.53" y2="-664.61" gradientTransform="matrix(1, 0, 0, -1, 0, 958.33)" gradientUnits="userSpaceOnUse"><stop offset="0" stop-color="#25336f"/><stop offset="1" stop-color="#1a67b2"/></linearGradient><linearGradient id="linear-gradient-16" x1="2929.51" y1="-770.42" x2="3091.49" y2="-804.37" gradientTransform="matrix(1, 0, 0, -1, 0, 958.33)" gradientUnits="userSpaceOnUse"><stop offset="0.04" stop-color="#ccecfc"/><stop offset="0.4" stop-color="#fddfd6"/><stop offset="1" stop-color="#fabaa7"/></linearGradient><linearGradient id="linear-gradient-17" x1="3071.68" y1="-714.32" x2="3097.13" y2="-716.47" gradientTransform="matrix(1, 0, 0, -1, 0, 958.33)" gradientUnits="userSpaceOnUse"><stop offset="0.14" stop-color="#f9ad96"/><stop offset="1" stop-color="#fccebd"/></linearGradient><linearGradient id="linear-gradient-18" x1="2958.58" y1="-704.64" x2="2951.53" y2="-701.19" gradientTransform="matrix(1, 0, 0, -1, 0, 958.33)" gradientUnits="userSpaceOnUse"><stop offset="0" stop-color="#231f20"/><stop offset="1" stop-color="#0d5da8"/></linearGradient><linearGradient id="linear-gradient-19" x1="3003.68" y1="-704.64" x2="2996.63" y2="-701.19" xlink:href="#linear-gradient-18"/><linearGradient id="linear-gradient-20" x1="2981.68" y1="-815.45" x2="3052.99" y2="-829.68" gradientTransform="matrix(1, 0, 0, -1, 0, 958.33)" gradientUnits="userSpaceOnUse"><stop offset="0.14" stop-color="#f9ad96"/><stop offset="0.68" stop-color="#f69173"/></linearGradient><linearGradient id="linear-gradient-21" x1="2514.95" y1="-912.34" x2="2635.68" y2="-899.91" gradientTransform="matrix(1, 0, 0, -1, 0, 958.33)" gradientUnits="userSpaceOnUse"><stop offset="0.24" stop-color="#fcd3c3"/><stop offset="0.66" stop-color="#fabaa7"/></linearGradient><linearGradient id="linear-gradient-22" x1="2533.35" y1="-921.07" x2="2547.75" y2="-898.41" xlink:href="#linear-gradient-21"/><linearGradient id="linear-gradient-23" x1="2540.87" y1="-893.53" x2="2556.29" y2="-869.29" xlink:href="#linear-gradient-21"/><linearGradient id="linear-gradient-24" x1="2560.92" y1="-873.87" x2="2576.34" y2="-849.63" xlink:href="#linear-gradient-21"/><linearGradient id="linear-gradient-25" x1="2579.58" y1="-878.56" x2="2620.74" y2="-913.37" xlink:href="#linear-gradient-21"/><linearGradient id="linear-gradient-26" x1="2496.48" y1="-1075.19" x2="2798.18" y2="-1174.48" gradientTransform="matrix(1, 0, 0, -1, 0, 958.33)" gradientUnits="userSpaceOnUse"><stop offset="0.13" stop-color="#cdebfa"/><stop offset="0.91" stop-color="#53a7dd"/></linearGradient><linearGradient id="linear-gradient-27" x1="2721.71" y1="-1080.8" x2="3143.88" y2="-1234.88" gradientTransform="matrix(1, 0, 0, -1, 0, 958.33)" gradientUnits="userSpaceOnUse"><stop offset="0.13" stop-color="#cdebfa"/><stop offset="0.91" stop-color="#53a2d9"/></linearGradient><linearGradient id="linear-gradient-28" x1="2888.96" y1="-1429.13" x2="3007.23" y2="-1364.07" xlink:href="#linear-gradient-21"/><linearGradient id="linear-gradient-29" x1="2917.85" y1="-1313.48" x2="2741.04" y2="-1492.06" gradientTransform="matrix(1, 0, 0, -1, 0, 958.33)" gradientUnits="userSpaceOnUse"><stop offset="0.24" stop-color="#fcd3c3"/><stop offset="1"/></linearGradient><linearGradient id="linear-gradient-30" x1="2808.5" y1="-1375.57" x2="2887.73" y2="-1403.53" xlink:href="#linear-gradient-20"/><linearGradient id="linear-gradient-31" x1="2929.63" y1="-1329.74" x2="2727.44" y2="-1495.4" xlink:href="#linear-gradient-29"/><linearGradient id="linear-gradient-32" x1="2814.95" y1="-1390.67" x2="2896.95" y2="-1415.69" xlink:href="#linear-gradient-20"/><linearGradient id="linear-gradient-33" x1="2942.33" y1="-1339.63" x2="2740.34" y2="-1506.37" gradientTransform="matrix(1, 0, 0, -1, 0, 958.33)" gradientUnits="userSpaceOnUse"><stop offset="0.36" stop-color="#fcd3c3"/><stop offset="1"/></linearGradient><linearGradient id="linear-gradient-34" x1="2826.05" y1="-1401.91" x2="2905.13" y2="-1423.9" xlink:href="#linear-gradient-20"/><linearGradient id="linear-gradient-35" x1="2953.28" y1="-1353.4" x2="2763.5" y2="-1494.91" xlink:href="#linear-gradient-29"/><linearGradient id="linear-gradient-36" x1="2857.02" y1="-1409.04" x2="2949.67" y2="-1463.44" xlink:href="#linear-gradient-20"/><linearGradient id="linear-gradient-37" x1="2851.36" y1="-1310.39" x2="3315.45" y2="-1094.83" xlink:href="#linear-gradient-13"/><linearGradient id="linear-gradient-38" x1="2958.82" y1="-906.17" x2="3019.75" y2="-866.52" xlink:href="#linear-gradient-12"/><linearGradient id="linear-gradient-39" x1="3026.11" y1="-922.63" x2="3094.41" y2="-860.73" xlink:href="#linear-gradient-12"/><linearGradient id="linear-gradient-40" x1="3016.15" y1="-684.12" x2="2977.16" y2="-662.6" xlink:href="#linear-gradient-18"/><linearGradient id="linear-gradient-41" x1="2959.92" y1="-681.99" x2="2929.91" y2="-674.89" xlink:href="#linear-gradient-18"/><radialGradient id="radial-gradient-2" cx="3154.85" cy="882.71" r="1" gradientTransform="matrix(-6.67, 82.91, 79.5, 6.96, -46590.07, -265985.91)" gradientUnits="userSpaceOnUse"><stop offset="0" stop-color="#fff"/><stop offset="1" stop-color="#87b9e4" stop-opacity="0"/></radialGradient><linearGradient id="linear-gradient-42" x1="2887.46" y1="-1485.09" x2="2965.14" y2="-1386.73" gradientTransform="matrix(1, 0, 0, -1, 0, 958.33)" gradientUnits="userSpaceOnUse"><stop offset="0" stop-color="#aadbf6"/><stop offset="1" stop-color="#daf0fc"/></linearGradient><linearGradient id="linear-gradient-43" x1="2699.53" y1="-1479.84" x2="3127.42" y2="-1141.86" gradientTransform="matrix(1, 0, 0, -1, 0, 958.33)" gradientUnits="userSpaceOnUse"><stop offset="0.24" stop-color="#77c1eb"/><stop offset="1" stop-color="#fef4f8"/></linearGradient><linearGradient id="linear-gradient-44" x1="2950.05" y1="-1218.07" x2="3944.8" y2="-1039.58" gradientTransform="matrix(1, 0, 0, -1, 0, 958.33)" gradientUnits="userSpaceOnUse"><stop offset="0" stop-color="#6fbce8"/><stop offset="1" stop-color="#fef4f8"/></linearGradient><linearGradient id="linear-gradient-45" x1="2946.28" y1="-1231.87" x2="3322.14" y2="-1140.98" gradientTransform="matrix(1, 0, 0, -1, 0, 958.33)" gradientUnits="userSpaceOnUse"><stop offset="0" stop-color="#aadbf6"/><stop offset="0.92" stop-color="#7cc3ec"/></linearGradient><linearGradient id="linear-gradient-46" x1="3010.44" y1="-1255.97" x2="3200.08" y2="-1255.97" gradientTransform="matrix(1, 0, 0, -1, 0, 958.33)" gradientUnits="userSpaceOnUse"><stop offset="0" stop-color="#aadbf6"/><stop offset="0" stop-color="#daf0fc"/><stop offset="0.92" stop-color="#5fb0e2"/></linearGradient><linearGradient id="linear-gradient-47" x1="3091.18" y1="-1342.32" x2="3204.44" y2="-1342.32" gradientTransform="matrix(1, 0, 0, -1, 0, 958.33)" gradientUnits="userSpaceOnUse"><stop offset="0" stop-color="#aadbf6"/><stop offset="0.92" stop-color="#60b2e3"/></linearGradient><linearGradient id="linear-gradient-48" x1="3046.06" y1="-1340.62" x2="3191.48" y2="-1334.54" xlink:href="#linear-gradient-44"/><linearGradient id="linear-gradient-49" x1="3138.39" y1="-1482.62" x2="3169.73" y2="-1406.83" xlink:href="#linear-gradient-42"/><linearGradient id="linear-gradient-50" x1="2985.17" y1="-1462.55" x2="3206.74" y2="-1337.05" xlink:href="#linear-gradient-43"/><linearGradient id="linear-gradient-51" x1="3141.72" y1="-1132.08" x2="3069.88" y2="-1119.81" gradientTransform="matrix(1, 0, 0, -1, 0, 958.33)" gradientUnits="userSpaceOnUse"><stop offset="0" stop-color="#98d2f3"/><stop offset="1" stop-color="#c4e9fb"/></linearGradient><linearGradient id="linear-gradient-52" x1="2420.49" y1="1008.7" x2="2420.49" y2="-1463.07" gradientTransform="matrix(1, 0, 0, -1, 0, 958.33)" gradientUnits="userSpaceOnUse"><stop offset="0.3" stop-color="#bbe2f8" stop-opacity="0"/><stop offset="1" stop-color="#bbe2f8" stop-opacity="0.55"/></linearGradient><linearGradient id="linear-gradient-53" x1="2036.87" y1="-612.16" x2="2496.82" y2="-720.42" gradientTransform="matrix(1, 0, 0, -1, 0, 958.33)" gradientUnits="userSpaceOnUse"><stop offset="0.13" stop-color="#d5effc"/><stop offset="0.91" stop-color="#91ccef" stop-opacity="0.2"/></linearGradient><linearGradient id="linear-gradient-54" x1="2314.77" y1="-425.64" x2="2443.49" y2="-601.74" xlink:href="#linear-gradient-27"/><linearGradient id="linear-gradient-55" x1="2242.72" y1="-801.36" x2="2293.01" y2="-654.58" xlink:href="#linear-gradient-13"/><linearGradient id="linear-gradient-56" x1="2236.59" y1="-732.09" x2="2312" y2="-740.87" xlink:href="#linear-gradient-6"/><linearGradient id="linear-gradient-57" x1="2250.32" y1="-672.41" x2="2298.85" y2="-696.43" xlink:href="#linear-gradient-6"/><linearGradient id="linear-gradient-58" x1="2436.42" y1="-771.91" x2="2500.71" y2="-655.8" gradientTransform="matrix(1, 0, 0, -1, 0, 958.33)" gradientUnits="userSpaceOnUse"><stop offset="0.01" stop-color="#e5eef9"/><stop offset="0.91" stop-color="#9bd1f1"/></linearGradient><linearGradient id="linear-gradient-59" x1="2371.47" y1="-825.96" x2="2508.83" y2="-661.47" gradientTransform="matrix(1, 0, 0, -1, 0, 958.33)" gradientUnits="userSpaceOnUse"><stop offset="0.32" stop-color="#f4fbfe"/><stop offset="1" stop-color="#62bbe9"/></linearGradient><linearGradient id="linear-gradient-60" x1="2398.98" y1="-834.95" x2="2508.87" y2="-724.66" gradientTransform="matrix(1, 0, 0, -1, 0, 958.33)" gradientUnits="userSpaceOnUse"><stop offset="0.08" stop-color="#54a4da"/><stop offset="1" stop-color="#4773b8"/></linearGradient><linearGradient id="linear-gradient-61" x1="3354.07" y1="-516.46" x2="3443.96" y2="-639.51" xlink:href="#linear-gradient-27"/><linearGradient id="linear-gradient-62" x1="2633.73" y1="-719.74" x2="2176.15" y2="-665.59" gradientTransform="matrix(1, 0, 0, -1, 0, 958.33)" gradientUnits="userSpaceOnUse"><stop offset="0" stop-color="#9bdcf9"/><stop offset="0.98" stop-color="#fff" stop-opacity="0.44"/></linearGradient><linearGradient id="linear-gradient-63" x1="3249.6" y1="-736.92" x2="3775.39" y2="-679.66" gradientTransform="matrix(1, 0, 0, -1, 0, 958.33)" gradientUnits="userSpaceOnUse"><stop offset="0.13" stop-color="#d5effc" stop-opacity="0.26"/><stop offset="0.91" stop-color="#91ccef"/></linearGradient><linearGradient id="linear-gradient-64" x1="3322.55" y1="-768.34" x2="3422.24" y2="-756.03" gradientTransform="matrix(1, 0, 0, -1, 0, 958.33)" gradientUnits="userSpaceOnUse"><stop offset="0" stop-color="#4773b8"/><stop offset="1" stop-color="#6db8e6"/></linearGradient><linearGradient id="linear-gradient-65" x1="3456.98" y1="-743.78" x2="3559.7" y2="-654.64" gradientTransform="matrix(1, 0, 0, -1, 0, 958.33)" gradientUnits="userSpaceOnUse"><stop offset="0" stop-color="#62bbe9"/><stop offset="1" stop-color="#f4fbfe"/></linearGradient><linearGradient id="linear-gradient-66" x1="3456.95" y1="-796.37" x2="3559.6" y2="-707.23" xlink:href="#linear-gradient-65"/><linearGradient id="linear-gradient-67" x1="3542.43" y1="1008.89" x2="3540.77" y2="-370.59" gradientTransform="matrix(1, 0, 0, -1, 0, 958.33)" gradientUnits="userSpaceOnUse"><stop offset="0.57" stop-color="#b8e0cf" stop-opacity="0"/><stop offset="1" stop-color="#b8e0cf" stop-opacity="0.3"/></linearGradient><linearGradient id="linear-gradient-68" x1="3337.89" y1="-386.18" x2="3600.83" y2="-452.68" gradientTransform="matrix(1, 0, 0, -1, 0, 958.33)" gradientUnits="userSpaceOnUse"><stop offset="0.13" stop-color="#d5effc" stop-opacity="0"/><stop offset="0.91" stop-color="#91ccef" stop-opacity="0.74"/></linearGradient><linearGradient id="linear-gradient-69" x1="3333.26" y1="-365.67" x2="3456.8" y2="-341.85" xlink:href="#linear-gradient-13"/><linearGradient id="linear-gradient-70" x1="3388.28" y1="-214.23" x2="3594.05" y2="-335.3" xlink:href="#linear-gradient-27"/><linearGradient id="linear-gradient-71" x1="3389.5" y1="-313" x2="3438.13" y2="-316.91" xlink:href="#linear-gradient-6"/><linearGradient id="linear-gradient-72" x1="3487.31" y1="-265.92" x2="3501.6" y2="-1265.96" gradientTransform="matrix(1, 0, 0, -1, 0, 958.33)" gradientUnits="userSpaceOnUse"><stop offset="0.05" stop-color="#bbe2f8" stop-opacity="0"/><stop offset="1" stop-color="#bbe2f8" stop-opacity="0.28"/></linearGradient><linearGradient id="linear-gradient-73" x1="3291.65" y1="-1128.81" x2="3670.35" y2="-1123.83" gradientTransform="matrix(1, 0, 0, -1, 0, 958.33)" gradientUnits="userSpaceOnUse"><stop offset="0.13" stop-color="#d5effc" stop-opacity="0.22"/><stop offset="0.91" stop-color="#91ccef"/></linearGradient><linearGradient id="linear-gradient-74" x1="3246.57" y1="-1058.38" x2="3560.29" y2="-1017.09" xlink:href="#linear-gradient-27"/><linearGradient id="linear-gradient-75" x1="3108.94" y1="-221.12" x2="3108.94" y2="-274" gradientTransform="matrix(1, 0, 0, -1, 0, 958.33)" gradientUnits="userSpaceOnUse"><stop offset="0" stop-color="#a6d5f3"/><stop offset="1" stop-color="#a6d5f3" stop-opacity="0"/></linearGradient><linearGradient id="linear-gradient-76" x1="3702.88" y1="-784.22" x2="3702.88" y2="-837.1" xlink:href="#linear-gradient-75"/><linearGradient id="linear-gradient-77" x1="2245.29" y1="-874.59" x2="2245.29" y2="-934.9" xlink:href="#linear-gradient-75"/><linearGradient id="linear-gradient-78" x1="3165.96" y1="-301.11" x2="3165.96" y2="-319.94" xlink:href="#linear-gradient-75"/><linearGradient id="linear-gradient-79" x1="3624.4" y1="-738.6" x2="3624.4" y2="-757.43" xlink:href="#linear-gradient-75"/><linearGradient id="linear-gradient-80" x1="3677.52" y1="-910.15" x2="3677.52" y2="-928.99" xlink:href="#linear-gradient-75"/><linearGradient id="linear-gradient-81" x1="3048.8" y1="-326.97" x2="3048.8" y2="-369.33" xlink:href="#linear-gradient-75"/><linearGradient id="linear-gradient-82" x1="2291.5" y1="-837.77" x2="2291.5" y2="-866.87" xlink:href="#linear-gradient-75"/><linearGradient id="linear-gradient-83" x1="2310.1" y1="-442.03" x2="2310.1" y2="-1363.81" gradientTransform="matrix(1, 0, 0, -1, 0, 958.33)" gradientUnits="userSpaceOnUse"><stop offset="0" stop-color="#bbe2f8" stop-opacity="0"/><stop offset="1" stop-color="#bbe2f8" stop-opacity="0.33"/></linearGradient><linearGradient id="linear-gradient-84" x1="2084.05" y1="-1165.77" x2="2526.32" y2="-1256.97" gradientTransform="matrix(1, 0, 0, -1, 0, 958.33)" gradientUnits="userSpaceOnUse"><stop offset="0.13" stop-color="#d5effc" stop-opacity="0.73"/><stop offset="0.91" stop-color="#91ccef" stop-opacity="0.1"/></linearGradient><linearGradient id="linear-gradient-85" x1="2253.72" y1="-1038.94" x2="2323.4" y2="-1148.62" xlink:href="#linear-gradient-27"/><linearGradient id="linear-gradient-86" x1="2264.5" y1="-1242.03" x2="2315.64" y2="-1208.17" xlink:href="#linear-gradient-12"/><linearGradient id="linear-gradient-87" x1="2264.03" y1="-1173.68" x2="2329.66" y2="-1197.14" xlink:href="#linear-gradient-6"/><linearGradient id="linear-gradient-88" x1="2281.82" y1="-1264.31" x2="2334.16" y2="-1234.41" xlink:href="#linear-gradient-13"/><linearGradient id="linear-gradient-89" x1="3412.88" y1="-1183.89" x2="3618.5" y2="-1149.62" gradientTransform="matrix(1, 0, 0, -1, 0, 958.33)" gradientUnits="userSpaceOnUse"><stop offset="0" stop-color="#cbe8f9"/><stop offset="1" stop-color="#4873b9"/></linearGradient><linearGradient id="linear-gradient-90" x1="3579.54" y1="-1059.23" x2="3476.18" y2="-1154.26" gradientTransform="matrix(1, 0, 0, -1, 0, 958.33)" gradientUnits="userSpaceOnUse"><stop offset="0" stop-color="#7bc797"/><stop offset="1" stop-color="#a3d7bf"/></linearGradient><linearGradient id="linear-gradient-91" x1="3578.65" y1="-1117.04" x2="3497.74" y2="-1209.72" gradientTransform="matrix(1, 0, 0, -1, 0, 958.33)" gradientUnits="userSpaceOnUse"><stop offset="0" stop-color="#fae150"/><stop offset="1" stop-color="#fff8d0"/></linearGradient><clipPath id="clip-path-2"><rect class="cls-2" x="2120.38" y="2485.92" width="1628.17" height="751.89"/></clipPath><mask id="mask" x="2456.02" y="2246.18" width="1016.73" height="1280.44" maskUnits="userSpaceOnUse"><g id="mask0_4_7986" data-name="mask0 4 7986"><path class="cls-1" d="M2515.31,2517.9h865.28c-120.84,6.3,66.47,65.66,92.17,164.59v804.06c0,19.87-15.46,36-34.5,36H2490.52c-19.05,0-34.5-16.1-34.5-36V2682.49C2469.44,2599.05,2645.34,2522,2515.31,2517.9Z"/></g></mask><linearGradient id="linear-gradient-92" x1="3272.51" y1="-1947.39" x2="3272.51" y2="-2169.07" gradientTransform="matrix(1, 0, 0, -1, 0, 958.33)" gradientUnits="userSpaceOnUse"><stop offset="0.09" stop-color="#6bcbdc"/><stop offset="1" stop-color="#6acce3" stop-opacity="0"/></linearGradient><linearGradient id="linear-gradient-93" x1="2905.14" y1="-2069.81" x2="2905.14" y2="-2481.96" xlink:href="#linear-gradient-92"/><linearGradient id="linear-gradient-94" x1="2799.93" y1="-1386.26" x2="2799.93" y2="-2478.37" xlink:href="#linear-gradient-92"/><linearGradient id="linear-gradient-95" x1="2967.23" y1="-1825.2" x2="2967.23" y2="-2483.98" xlink:href="#linear-gradient-92"/><linearGradient id="linear-gradient-96" x1="3003.45" y1="-1566.11" x2="3003.45" y2="-2086.27" xlink:href="#linear-gradient-92"/><linearGradient id="linear-gradient-97" x1="2725.77" y1="-1292.73" x2="2725.77" y2="-2478.37" xlink:href="#linear-gradient-92"/><linearGradient id="linear-gradient-98" x1="2603.31" y1="-1677.68" x2="2603.31" y2="-2481.95" xlink:href="#linear-gradient-92"/><linearGradient id="linear-gradient-99" x1="3324.26" y1="-1677.68" x2="3324.26" y2="-2481.95" xlink:href="#linear-gradient-92"/><linearGradient id="linear-gradient-100" x1="2713.7" y1="-1566.11" x2="2713.7" y2="-2043.1" xlink:href="#linear-gradient-92"/><linearGradient id="linear-gradient-101" x1="3108.66" y1="-1407.82" x2="3108.66" y2="-2474.8" xlink:href="#linear-gradient-92"/><linearGradient id="linear-gradient-102" x1="3165.11" y1="-1540.88" x2="3165.11" y2="-1755.24" xlink:href="#linear-gradient-92"/><linearGradient id="linear-gradient-103" x1="3117.29" y1="-1436.57" x2="3117.29" y2="-1629.41" xlink:href="#linear-gradient-92"/><linearGradient id="linear-gradient-104" x1="3210.42" y1="-1487.02" x2="3210.42" y2="-2481.94" xlink:href="#linear-gradient-92"/><linearGradient id="linear-gradient-105" x1="3228.5" y1="-1806.78" x2="3228.5" y2="-2478.38" xlink:href="#linear-gradient-92"/><linearGradient id="linear-gradient-106" x1="3270.79" y1="-1944.4" x2="3270.79" y2="-2147.22" gradientTransform="matrix(1, 0, 0, -1, 0, 958.33)" gradientUnits="userSpaceOnUse"><stop offset="0.09" stop-color="#fafbfb"/><stop offset="1" stop-color="#6acce3" stop-opacity="0"/></linearGradient><linearGradient id="linear-gradient-107" x1="2903.42" y1="-2066.73" x2="2903.42" y2="-2436.18" xlink:href="#linear-gradient-106"/><linearGradient id="linear-gradient-108" x1="2799.93" y1="-1383.19" x2="2799.93" y2="-2361.58" xlink:href="#linear-gradient-106"/><linearGradient id="linear-gradient-109" x1="2968.96" y1="-1822.1" x2="2968.96" y2="-2483.19" xlink:href="#linear-gradient-106"/><linearGradient id="linear-gradient-110" x1="3001.73" y1="-1563.06" x2="3001.73" y2="-2031.88" xlink:href="#linear-gradient-106"/><linearGradient id="linear-gradient-111" x1="2724.04" y1="-1289.65" x2="2724.04" y2="-2351.37" xlink:href="#linear-gradient-106"/><linearGradient id="linear-gradient-112" x1="2605.04" y1="-1674.59" x2="2605.04" y2="-2393.38" xlink:href="#linear-gradient-106"/><linearGradient id="linear-gradient-113" x1="3322.53" y1="-1674.59" x2="3322.53" y2="-2393.39" xlink:href="#linear-gradient-106"/><linearGradient id="linear-gradient-114" x1="2711.97" y1="-1563.06" x2="2711.97" y2="-1993.42" xlink:href="#linear-gradient-106"/><linearGradient id="linear-gradient-115" x1="3106.94" y1="-1404.76" x2="3106.94" y2="-2360.75" xlink:href="#linear-gradient-106"/><linearGradient id="linear-gradient-116" x1="3163.39" y1="-1537.87" x2="3163.39" y2="-1732.59" xlink:href="#linear-gradient-106"/><linearGradient id="linear-gradient-117" x1="3115.56" y1="-1437.13" x2="3115.56" y2="-1611.12" xlink:href="#linear-gradient-106"/><linearGradient id="linear-gradient-118" x1="3208.7" y1="-1487.52" x2="3208.7" y2="-2376.17" xlink:href="#linear-gradient-106"/><linearGradient id="linear-gradient-119" x1="3206.75" y1="-1805.59" x2="3206.75" y2="-2407.69" xlink:href="#linear-gradient-106"/><radialGradient id="radial-gradient-3" cx="3156.62" cy="841.44" r="1" gradientTransform="matrix(0, 24.98, 23.91, 0, -17445.05, -76229.88)" gradientUnits="userSpaceOnUse"><stop offset="0.33" stop-color="#fff"/><stop offset="1" stop-color="#fdfefe" stop-opacity="0"/></radialGradient><radialGradient id="radial-gradient-4" cx="3156.62" cy="841.44" r="1" gradientTransform="matrix(0, 24.98, 23.91, 0, -16727.58, -76229.88)" gradientUnits="userSpaceOnUse"><stop offset="0.33" stop-color="#68cbe3"/><stop offset="1" stop-color="#64cae1" stop-opacity="0"/></radialGradient><radialGradient id="radial-gradient-5" cx="3156.82" cy="838.92" r="1" gradientTransform="matrix(0, 23.95, 22.92, 0, -16299.12, -72835.81)" gradientUnits="userSpaceOnUse"><stop offset="0.45" stop-color="#feffff"/><stop offset="1" stop-color="#fff" stop-opacity="0"/></radialGradient><radialGradient id="radial-gradient-6" cx="3160.07" cy="797.69" r="1" gradientTransform="matrix(0, 14.31, 13.69, 0, -7992.32, -42440.94)" gradientUnits="userSpaceOnUse"><stop offset="0.51" stop-color="#fff"/><stop offset="1" stop-color="#fff" stop-opacity="0"/></radialGradient><radialGradient id="radial-gradient-7" cx="3158.4" cy="818.88" r="1" gradientTransform="matrix(0, 18.04, 17.27, 0, -11273.09, -53959.09)" gradientUnits="userSpaceOnUse"><stop offset="0.3" stop-color="#fff"/><stop offset="1" stop-color="#64cae1" stop-opacity="0"/><stop offset="1" stop-color="#fff" stop-opacity="0"/></radialGradient><radialGradient id="radial-gradient-8" cx="3157.55" cy="829.68" r="1" gradientTransform="matrix(0, 20.81, 19.91, 0, -13249.48, -62802.41)" gradientUnits="userSpaceOnUse"><stop offset="0.19" stop-color="#fff"/><stop offset="1" stop-color="#fff" stop-opacity="0"/></radialGradient><linearGradient id="linear-gradient-120" x1="2935.61" y1="-1559.97" x2="2935.61" y2="-2521.48" gradientTransform="matrix(1, 0, 0, -1, 0, 958.33)" gradientUnits="userSpaceOnUse"><stop offset="0.03" stop-color="#222c63"/><stop offset="0.06" stop-color="#222c63"/><stop offset="1" stop-color="#99cbee" stop-opacity="0"/></linearGradient><radialGradient id="radial-gradient-9" cx="3198.67" cy="872.46" r="1" gradientTransform="matrix(-6.35, 0.07, 0.01, 49.86, 22803.27, -41487.9)" gradientUnits="userSpaceOnUse"><stop offset="0" stop-color="#fff"/><stop offset="1" stop-color="#fff" stop-opacity="0"/></radialGradient><linearGradient id="linear-gradient-121" x1="2437.73" y1="-1262.33" x2="2437.73" y2="-1413.79" gradientTransform="matrix(1, 0, 0, -1, 0, 958.33)" gradientUnits="userSpaceOnUse"><stop offset="0.09" stop-color="#fff"/><stop offset="1" stop-color="#6acce3" stop-opacity="0"/></linearGradient><radialGradient id="radial-gradient-10" cx="3180.23" cy="872.08" r="1" gradientTransform="matrix(-6.35, 0.02, 0, 49.83, 23177.99, -41290.05)" xlink:href="#radial-gradient-9"/><linearGradient id="linear-gradient-122" x1="2952.44" y1="-1282.82" x2="2952.44" y2="-1436.76" xlink:href="#linear-gradient-121"/><radialGradient id="radial-gradient-11" cx="3198.58" cy="853.86" r="1" gradientTransform="matrix(-3.85, 0.01, 0, 30.2, 14559.07, -23548.46)" xlink:href="#radial-gradient-9"/><linearGradient id="linear-gradient-123" x1="2232.23" y1="-1322.25" x2="2232.23" y2="-1415.03" xlink:href="#linear-gradient-121"/><radialGradient id="radial-gradient-12" cx="3197.53" cy="879.26" r="1" gradientTransform="matrix(-5.63, 0.05, 0, 66.48, 21590.5, -56397.1)" xlink:href="#radial-gradient-9"/><linearGradient id="linear-gradient-124" x1="3554.1" y1="-1244.6" x2="3554.1" y2="-1432.04" xlink:href="#linear-gradient-121"/><radialGradient id="radial-gradient-13" cx="3220.18" cy="869.92" r="1" gradientTransform="matrix(-5.72, 0.09, 0.01, 44.99, 21794.92, -37150.49)" xlink:href="#radial-gradient-9"/><linearGradient id="linear-gradient-125" x1="3329.52" y1="-1314.1" x2="3329.52" y2="-1408.75" xlink:href="#linear-gradient-121"/><linearGradient id="linear-gradient-126" x1="2829.6" y1="-1094.41" x2="3115.11" y2="-1928.77" gradientTransform="matrix(1, 0, 0, -1, 0, 958.33)" gradientUnits="userSpaceOnUse"><stop offset="0" stop-color="#91ccef" stop-opacity="0.1"/><stop offset="0.56" stop-color="#d5effc" stop-opacity="0.73"/><stop offset="0.83" stop-color="#162750" stop-opacity="0"/></linearGradient><linearGradient id="linear-gradient-127" x1="3922.03" y1="-1509.61" x2="2211.98" y2="-1509.59" gradientTransform="matrix(1, 0, 0, -1, 0, 958.33)" gradientUnits="userSpaceOnUse"><stop offset="0" stop-color="#f2f2f3" stop-opacity="0"/><stop offset="1" stop-color="#f5f5f5"/></linearGradient></defs><g class="cls-3"><rect class="cls-4" x="-504.69" width="4967.29" height="3237.81"/><ellipse class="cls-5" cx="-182.16" cy="364.76" rx="788.21" ry="822.04"/><ellipse class="cls-6" cx="4162.49" cy="3179.86" rx="1027.95" ry="1072.08"/><g class="cls-7"><path class="cls-8" d="M2503.28-50.37h431.18l7,1186.83c-173.17,5.86-269,33.55-438.17,113.93Z"/></g><path class="cls-9" d="M2503.28,1269.85v228.64a36.56,36.56,0,0,0,3.75,16.14,34.87,34.87,0,0,0,10.39,12.59,33.16,33.16,0,0,0,14.75,6.27,32.82,32.82,0,0,0,15.87-1.44c89-30.86,255.22-71.41,357.86-56.54a30.26,30.26,0,0,0,13.23-1.15,31,31,0,0,0,11.6-6.75,32.78,32.78,0,0,0,7.88-11.15,33.91,33.91,0,0,0,2.75-13.54V1166.64a28.28,28.28,0,0,0-2.06-10.69,27.74,27.74,0,0,0-5.86-9,26.44,26.44,0,0,0-8.76-6,25.46,25.46,0,0,0-10.29-2c-164.7,3.82-300.26,43.15-366.77,66.5a65.34,65.34,0,0,0-32.11,24.71A69.75,69.75,0,0,0,2503.28,1269.85Z"/><path class="cls-10" d="M2914.47,1139.58c-164.24,3.81-299.41,43-365.73,66.31a65.24,65.24,0,0,0-32,24.64c-7.94,11.51-9.8,18.68-12.2,36.75,167.87-75.59,377.71-91.34,436.84-87.35v-12.81a28.35,28.35,0,0,0-2.05-10.66,27.86,27.86,0,0,0-5.85-9,26.27,26.27,0,0,0-8.73-5.93A25.49,25.49,0,0,0,2914.47,1139.58Z"/><path class="cls-11" d="M2603,1219.9c4.89-4.42,6.22-11.16,3-15.08s-9.85-3.51-14.73.9-6.22,11.16-3,15.08S2598.07,1224.31,2603,1219.9Z"/><path class="cls-11" d="M2573.5,1229.16c4.89-4.41,6.22-11.16,3-15.07s-9.84-3.52-14.74.9-6.22,11.15-3,15.07S2568.61,1233.57,2573.5,1229.16Z"/><path class="cls-11" d="M2544,1241.52c4.89-4.41,6.22-11.16,3-15.08s-9.84-3.51-14.72.9-6.23,11.16-3,15.08S2539.15,1245.93,2544,1241.52Z"/><path class="cls-12" d="M2593,1333.18V1517.3c17.22-5.09,35.8-10.17,55.19-15V1316C2623.55,1323,2606.87,1327.87,2593,1333.18Z"/><path class="cls-13" d="M2741.35,1327.74c-18.66,3.21-43.81,9.13-55.25,13.28v153c17.72-3.85,35.81-7.38,53.84-10.41l1.35-1Z"/><path class="cls-14" d="M2834.43,1259.54c-12.46.61-42.74,4.81-55.19,9.17V1478c16.82-2.11,33.42-3.7,49.5-4.6l5.69-.32Z"/><path class="cls-15" d="M2806.49,1241.56,2701.78,1318l-93.14-18.53.57-3.13,91.88,18.28L2804.74,1239Z"/><path class="cls-16" d="M2609.72,1302.46c5.65-3.29,8.26-9.62,5.84-14.13s-8.95-5.52-14.6-2.24-8.26,9.62-5.83,14.14S2604.08,1305.74,2609.72,1302.46Z"/><path class="cls-17" d="M2706.63,1324.49c5.64-3.29,8.26-9.61,5.83-14.13s-8.95-5.52-14.59-2.23-8.26,9.61-5.84,14.13S2701,1327.78,2706.63,1324.49Z"/><path class="cls-18" d="M2810,1248.4c5.64-3.29,8.26-9.62,5.84-14.14s-9-5.52-14.6-2.23-8.26,9.62-5.84,14.14S2804.33,1251.68,2810,1248.4Z"/><path class="cls-19" d="M3336.05,2417.57h-434.4l127.49-384.94H3424Z"/><path class="cls-20" d="M3381.11,2417.57H3316l80.82-360a32.61,32.61,0,0,1,11-17.75,30,30,0,0,1,32.74-3.63,31.5,31.5,0,0,1,10.83,9.14,33.27,33.27,0,0,1,5.9,13.16A33.91,33.91,0,0,1,3457,2073Z"/><path class="cls-21" d="M2934.86,1654c-26.05-13.92-48.44,27.19-.4,51.82Z"/><path class="cls-22" d="M3069,1644.09v-3.6h3.45v3.6Z"/><path class="cls-23" d="M3265.65,1788.1c-26.39,11.27-123.49,13.77-109.69-91.28s-72.65-145-110.94-137.64c-12.59-22.62-77.93-22.42-76.13.71-16.2-5-46.16,16.88-53.36,37.52s-4.8,51.27,12,48.77a9.24,9.24,0,0,0,1.53-.26c17.25-3.06,49.56-16.76,53.64-42.26,32.37-3.19,76.72,16.25,86.14,37.48.11,1.59.17,3.33.17,5v69.21c0,1.42,0,2.8-.1,4.21a75.25,75.25,0,0,1-22,49.43,68.48,68.48,0,0,1-85.88,9.06,72.83,72.83,0,0,1-26.08-30,82.75,82.75,0,0,1-4.35-13.82c-49.16,4.48-99.33,101.34-39.6,154.46,0,0,241.59,207,393.89,130.06C3450.3,1978.82,3373,1752.47,3265.65,1788.1Z"/><path class="cls-24" d="M3069,1877.93V1641.36c-9.52-21.47-54.4-41.08-87.16-37.92-4.13,25.8-36.81,39.66-54.27,42.76v75.13a70.53,70.53,0,0,0,6,28.47,21.43,21.43,0,0,0,1.08,2.14c8.14,15.52,21.57,29,37.8,35.31v90.68Z"/><path class="cls-25" d="M3069,1648.29c26.08-13.93,48.06,27.38,0,52Z"/><path class="cls-26" d="M2956.5,1668.17c2.24,0,4.07-2.79,4.07-6.22s-1.83-6.22-4.07-6.22-4.06,2.79-4.06,6.22S2954.26,1668.17,2956.5,1668.17Z"/><path class="cls-27" d="M3001.59,1668.17c2.25,0,4.07-2.79,4.07-6.22s-1.82-6.22-4.07-6.22-4.06,2.79-4.06,6.22S2999.35,1668.17,3001.59,1668.17Z"/><path class="cls-28" d="M2969.77,1651.7a1.57,1.57,0,0,1,1.63,1.49c.09,1.54.2,3,.3,4.56.34,4.77.66,9.39.55,13.78-.16,5.82-1.08,11.41-3.83,16.71a10.48,10.48,0,0,0-1.37,5.77,8.47,8.47,0,0,0,1.73,4.33c2,2.67,5.19,4.61,7.81,6.08a1.64,1.64,0,0,1,.62,2.16,1.5,1.5,0,0,1-2.07.65c-2.58-1.45-6.36-3.67-8.78-6.94a11.72,11.72,0,0,1-2.35-6,13.75,13.75,0,0,1,1.72-7.59c2.45-4.71,3.32-9.75,3.46-15.28.11-4.22-.2-8.61-.53-13.33-.11-1.54-.22-3.11-.32-4.71A1.59,1.59,0,0,1,2969.77,1651.7Z"/><path class="cls-29" d="M2993.54,1789.17a64,64,0,0,1-21.13-3.59v28.36c55.12,0,74.4-42.09,82.64-67.53a68.88,68.88,0,0,1-24.56,31.09A64.61,64.61,0,0,1,2993.54,1789.17Z"/><path class="cls-30" d="M2610.12,1827.13c-9.32-20.41-25.09-71.22-30.15-77.69l-2.15-2.64-29.3-38.52a11,11,0,0,0-7.2-4.17,10.82,10.82,0,0,0-8,2.14,11.69,11.69,0,0,0-4.39,7.28,12,12,0,0,0,1.6,8.42l15.78,24.5a81,81,0,0,0,10.31,16.94s1.65,4.46,6.26,33c-8.83-4.78-16.81,8.46-14.62,21.74-7,.17-19.77,9.38-14,24.12-5.5,6.79-18.5,6.59-19.71,16.18s9.17,28.54,25,49.2l19.76,122.56,76.23-42-19.27-85.52C2621.61,1873.35,2619.46,1847.5,2610.12,1827.13Z"/><path class="cls-31" d="M2535.07,1846.74a12.31,12.31,0,0,0-17.81,2,13.6,13.6,0,0,0,1.91,18.58l26.66,22.43a12.31,12.31,0,0,0,17.81-2,13.61,13.61,0,0,0-1.91-18.58Z"/><path class="cls-32" d="M2542.72,1816.92a13.16,13.16,0,0,0-19,2.12,14.54,14.54,0,0,0,2,19.86l28.52,24a13.17,13.17,0,0,0,19.06-2.12,14.54,14.54,0,0,0-2.05-19.86Z"/><path class="cls-33" d="M2562.77,1797.26a13.17,13.17,0,0,0-19.06,2.11,14.55,14.55,0,0,0,2.05,19.87l28.51,24a13.17,13.17,0,0,0,19.06-2.12,14.55,14.55,0,0,0-2-19.87Z"/><path class="cls-34" d="M2589.27,1828.44a13.19,13.19,0,0,0-18.9,3.31,14.51,14.51,0,0,0,3.18,19.7l29.21,21.7a13.19,13.19,0,0,0,18.9-3.31,14.51,14.51,0,0,0-3.18-19.7Z"/><path class="cls-35" d="M2834.27,1912.14,2692,2076.28l-42-91.77-114.24,30.68s38.38,200,46.12,227.71,58.67,150.94,199.48,0L2922.17,2092Z"/><path class="cls-36" d="M2971.82,1815c-83.88,33.15-139.05,98.21-139.05,98.21-44.31,141.7-34.43,504.39-34.43,504.39h467.28v-90.08c50.43-7.5,108.38-47.81,80.13-161.31s-116.91-248.86-134.88-263.86c-37.56-34.18-143.08-87.35-143.08-87.35s-38.15,60-63.36,58.16S2971.82,1815,2971.82,1815Z"/><path class="cls-37" d="M2986.16,2337.05c-55.15-13.77-92.32-21.26-92.32-21.26-16.81,0-43.77,29.11,1.79,52.86s68,27.09,112.23,22.16S2986.16,2337.05,2986.16,2337.05Z"/><path class="cls-38" d="M2901.69,2325.66a11.42,11.42,0,0,0-1.4-4.14,11.11,11.11,0,0,0-2.81-3.28,10.7,10.7,0,0,0-3.8-1.9,10.5,10.5,0,0,0-4.21-.24l-45.85,7a8.68,8.68,0,0,0-5.37,1.38l-43.63,28.15a9.36,9.36,0,0,0-4.14,5.72,9.79,9.79,0,0,0,.92,7.1,9.1,9.1,0,0,0,5.45,4.37,8.66,8.66,0,0,0,6.81-.89l41.26-23.31h.34l47.28-7.21a10.66,10.66,0,0,0,7.1-4.4A11.59,11.59,0,0,0,2901.69,2325.66Z"/><path class="cls-39" d="M2794,2368.06c.35-3.8,3.65-6.92,6.11-8.8s35.38-30.28,38.67-31.87a43.86,43.86,0,0,1,14.39-3.19c5.1-.29,40.46,0,40.46,0l-57.54,18.63-35.84,27C2799,2371.05,2794,2368.06,2794,2368.06Z"/><path class="cls-40" d="M2901.69,2333.83a11.69,11.69,0,0,0-1.39-4.16,11.08,11.08,0,0,0-2.82-3.27,10.46,10.46,0,0,0-3.8-1.9,10.32,10.32,0,0,0-4.21-.24l-47.24,7.27a10.62,10.62,0,0,0-5.73,2.82,13.52,13.52,0,0,0-1.23,1L2799,2371.05a9.74,9.74,0,0,0-.55,13.12,8.92,8.92,0,0,0,6.1,3.14,8.81,8.81,0,0,0,6.46-2.18l36.1-31.59,45.5-6.95a10.74,10.74,0,0,0,7-4.43A11.64,11.64,0,0,0,2901.69,2333.83Z"/><path class="cls-41" d="M2801.48,2386.51a12,12,0,0,1,.77-4.78,11.82,11.82,0,0,1,2.56-4.05s36-36.24,39.56-39.53c1.69-1.74,4.5-3.08,10.5-3.66s46.82-.66,46.82-.66L2809,2386.41C2806.9,2388.62,2801.48,2386.51,2801.48,2386.51Z"/><path class="cls-42" d="M2914.68,2344.15a11.61,11.61,0,0,0-1.4-4.14,11.11,11.11,0,0,0-2.81-3.28,10.66,10.66,0,0,0-3.81-1.9,10.27,10.27,0,0,0-4.2-.24l-47.28,7.22a17.61,17.61,0,0,0-7.22,3.57l-36.29,35.67a9.7,9.7,0,0,0-.74,13.29,8.78,8.78,0,0,0,12.75.78l35.62-31.19,46.27-7a10.59,10.59,0,0,0,4-1.46,11.19,11.19,0,0,0,3.12-2.94,11.69,11.69,0,0,0,1.81-4A12,12,0,0,0,2914.68,2344.15Z"/><path class="cls-43" d="M2901.83,2341.64l-40,11-45.61,36.88a5.35,5.35,0,0,0-2.09,3.25,5.53,5.53,0,0,0,.56,3.87,8.28,8.28,0,0,0,4.81.6,8.47,8.47,0,0,0,4.36-2.19l35.62-31.19,49.57-8.16Z"/><path class="cls-44" d="M2922,2345.11a11.34,11.34,0,0,0-2.34-3.66,10.73,10.73,0,0,0-3.5-2.44,10.35,10.35,0,0,0-8.26,0l-44.15,19.12a10,10,0,0,0-2,1.16,10.57,10.57,0,0,0-1.53,1l-26.73,21.93a9.74,9.74,0,0,0-2.89,6.08,9.88,9.88,0,0,0,1.71,6.54,9.1,9.1,0,0,0,5.44,3.72,8.85,8.85,0,0,0,6.44-1l25.75-18a9.67,9.67,0,0,0,2.08-.66l44.16-19a10.77,10.77,0,0,0,3.52-2.44,11.24,11.24,0,0,0,2.35-3.67,11.49,11.49,0,0,0,.82-4.33A11.63,11.63,0,0,0,2922,2345.11Z"/><path class="cls-45" d="M2974.34,2392.76c-21.4-.78-69.12-32.59-74.51-32.13s-34.77,11.84-34.77,11.84-20,13.34-23.79,16.88-6.19,6.26-5,9.34l3.94.38a8.78,8.78,0,0,0,3.93-1.59l25.75-18a9.67,9.67,0,0,0,2.08-.66l23.64-10.19C2928.22,2385.59,2949,2392.22,2974.34,2392.76Z"/><path class="cls-46" d="M3347.27,2165.15c-28.22-113.54-116.91-248.87-134.88-263.86a213.13,213.13,0,0,0-18.35-14.6c-71.58-44.31-149.74,57-96.1,164L3170,2178.21,2962.8,2326.45l32.44,87.22,271.89-87.22C3317.5,2319,3375.48,2278.66,3347.27,2165.15Z"/><path class="cls-47" d="M2972.41,1813.92c4.65,16,20.29,50.72,33,58.37-5.92,8.57-16.42,21.71-37.63,32.87-4.77-9-31.7-86.66,4.66-94.92Z"/><path class="cls-48" d="M3030.5,1909.14s80.23-75.4,38.49-99.2v4.18c-19.28,28.49-49.09,52.59-63.23,58.37C3008.06,1888.92,3030.5,1909.14,3030.5,1909.14Z"/><path class="cls-28" d="M2982,1722.63a12.72,12.72,0,0,1-5.25-.36,1.52,1.52,0,0,0-1.95,1,1.62,1.62,0,0,0,.93,2,15.54,15.54,0,0,0,6.56.52,38.38,38.38,0,0,0,8.54-1.94,42.35,42.35,0,0,0,17.56-11.31,1.65,1.65,0,0,0-.07-2.26,1.49,1.49,0,0,0-2.16.08,39.31,39.31,0,0,1-16.29,10.46A35.54,35.54,0,0,1,2982,1722.63Z"/><path class="cls-49" d="M3011.67,1639.83a21.23,21.23,0,0,0-12.38-1.6,2.3,2.3,0,0,1-2.68-1.9,2.39,2.39,0,0,1,1.83-2.8,25.69,25.69,0,0,1,15,1.89c4.46,2,8.41,5.14,10.29,9a2.44,2.44,0,0,1-1,3.21,2.24,2.24,0,0,1-3.08-1.05C3018.43,1644.08,3015.55,1641.53,3011.67,1639.83Z"/><path class="cls-50" d="M2942.55,1645.58a2.46,2.46,0,0,1-.21-3.37,28.83,28.83,0,0,1,12.34-8.08c4.51-1.6,9.26-2.26,12.83-1.67a2.38,2.38,0,0,1,1.91,2.73,2.32,2.32,0,0,1-2.62,2,23.11,23.11,0,0,0-10.64,1.47,24.4,24.4,0,0,0-10.38,6.7A2.22,2.22,0,0,1,2942.55,1645.58Z"/><ellipse class="cls-51" cx="2540.45" cy="1715.04" rx="79.5" ry="82.91"/><path class="cls-52" d="M2814.73,2385.19H3026.6a8.08,8.08,0,0,1,7.9,8.24v15.91a8.07,8.07,0,0,1-7.89,8.23H2814.72a8.07,8.07,0,0,1-7.88-8.23v-15.92A8.06,8.06,0,0,1,2814.73,2385.19Z"/><path class="cls-53" d="M2658,2417.57h156.47a14.21,14.21,0,0,0,5.66-1.18,14.61,14.61,0,0,0,4.8-3.35,15.31,15.31,0,0,0,3.21-5,16,16,0,0,0-.11-12.09,15.48,15.48,0,0,0-3.5-5.15,14.49,14.49,0,0,0-5.19-3.25,14.13,14.13,0,0,0-6-.82l-156,12.42a8.8,8.8,0,0,0-5.82,2.95,9.38,9.38,0,0,0,.25,12.76A8.77,8.77,0,0,0,2658,2417.57Z"/><path class="cls-54" d="M2887.51,1985.86h404.36c8.36,0,15.14,7.07,15.14,15.79V2301c0,8.72-6.78,15.8-15.14,15.8H2887.52c-8.37,0-15.15-7.08-15.15-15.8V2001.65C2872.37,1992.93,2879.15,1985.86,2887.51,1985.86Z"/><path class="cls-55" d="M2897.86,1985.86H3316c8.36,0,15.14,7.07,15.14,15.79V2301c0,8.72-6.78,15.8-15.15,15.8H2897.86c-8.36,0-15.14-7.07-15.14-15.79v-299.4C2882.72,1992.93,2889.5,1985.86,2897.86,1985.86Z"/><path class="cls-56" d="M3032.16,2140.55h159.91a8.19,8.19,0,0,1,8,8.35v130.8a8.19,8.19,0,0,1-8,8.35h-159.9a8.19,8.19,0,0,1-8-8.35V2148.91A8.19,8.19,0,0,1,3032.16,2140.55Z"/><path class="cls-57" d="M3047.79,2198.12h119.7a13.64,13.64,0,0,1,8.87,3.27,14.78,14.78,0,0,1,4.91,8.38l39.28,193.41H3089.44Z"/><path class="cls-58" d="M3043.05,2196.29a8.34,8.34,0,0,1,4.87,1.54,6.84,6.84,0,0,1,2.69,3.93l47,197.82h-15.83l-46.37-194.95a6.18,6.18,0,0,1,.07-3.05,6.33,6.33,0,0,1,1.49-2.73,7.75,7.75,0,0,1,2.69-1.89A8.51,8.51,0,0,1,3043.05,2196.29Z"/><path class="cls-59" d="M3035.43,2399.58h232.7a4.47,4.47,0,0,1,4.38,4.57V2413a4.48,4.48,0,0,1-4.37,4.57H3035.43a4.48,4.48,0,0,1-4.38-4.57v-8.86A4.47,4.47,0,0,1,3035.43,2399.58Z"/><path class="cls-60" d="M2973.34,2399.58h67.13a4.47,4.47,0,0,1,4.38,4.57V2413a4.48,4.48,0,0,1-4.38,4.57h-67.13A4.48,4.48,0,0,1,2969,2413v-8.86A4.47,4.47,0,0,1,2973.34,2399.58Z"/><ellipse class="cls-61" cx="3111.01" cy="2085.17" rx="41.86" ry="43.66"/><path class="cls-62" d="M2206.62-50.37h427.74v1635.8l-427.74-88.68Z"/><path class="cls-63" d="M2250.27,1462.48c80.1,35,200.43,79.57,330,78.65,30.57-.23,54.05,21.53,54.05,50.74v221.79c0,16.61-15.78,30.77-33,29.67-169.07-10.78-282.53-42.75-372.82-95.41a42.7,42.7,0,0,1-16-16,45,45,0,0,1-5.88-22.32V1491.15C2206.62,1469.93,2230.78,1454,2250.27,1462.48Z"/><path class="cls-64" d="M2580.49,1540.78c-130,.93-250.74-43.74-331.09-78.9-21.21-7.71-39.18,8-42.6,19.79,57.57,39.71,244.81,114.63,427,103.2C2632.05,1570.94,2618.29,1540.51,2580.49,1540.78Z"/><path class="cls-65" d="M2321.06,1701.06c21.15-21.79,19.16-59.68-4.46-84.63s-59.92-27.53-81.08-5.74-19.16,59.67,4.46,84.62S2299.9,1722.84,2321.06,1701.06Z"/><path class="cls-66" d="M2312.42,1708.06a50.07,50.07,0,0,0-8.66-15.94c-15.5-19.24-41.55-23.52-58.19-9.56a35.17,35.17,0,0,0-8.09,9.83C2257.68,1716.2,2289.7,1722.61,2312.42,1708.06Z"/><path class="cls-67" d="M2286.3,1655.67c6.28-6.45,5.68-17.69-1.32-25.08s-17.76-8.16-24-1.71-5.68,17.69,1.33,25.08S2280,1662.13,2286.3,1655.67Z"/><path class="cls-68" d="M2369.5,1621.34c71.23,23.05,156.43,35.31,211.3,35.31a11.13,11.13,0,0,1,4.63.78,11.39,11.39,0,0,1,4,2.61,12.16,12.16,0,0,1,2.66,4,12.6,12.6,0,0,1,.92,4.79v19a12.92,12.92,0,0,1-12.86,12.56c-96.28-1.47-180.62-23.4-213.67-34.79a11.45,11.45,0,0,1-5.85-4.38,12.2,12.2,0,0,1-2.18-7.16v-24.3a9.46,9.46,0,0,1,1-3.93,9.12,9.12,0,0,1,2.57-3.08,8.58,8.58,0,0,1,3.59-1.61A8.43,8.43,0,0,1,2369.5,1621.34Z"/><path class="cls-69" d="M2369.5,1621.34c71.23,23.05,156.43,35.31,211.3,35.31a11.13,11.13,0,0,1,4.63.78,11.39,11.39,0,0,1,4,2.61,12.16,12.16,0,0,1,2.66,4,12.6,12.6,0,0,1,.92,4.79v19a12.92,12.92,0,0,1-12.86,12.56c-96.28-1.47-180.62-23.4-213.67-34.79a11.45,11.45,0,0,1-5.85-4.38,12.2,12.2,0,0,1-2.18-7.16v-24.3a9.46,9.46,0,0,1,1-3.93,9.12,9.12,0,0,1,2.57-3.08,8.58,8.58,0,0,1,3.59-1.61A8.43,8.43,0,0,1,2369.5,1621.34Z"/><path class="cls-70" d="M2372.9,1707.18c70.89,22.93,94.71,32.62,149.32,32.62a11.32,11.32,0,0,1,4.6.78,11.71,11.71,0,0,1,3.94,2.6,12.39,12.39,0,0,1,2.64,4,12.72,12.72,0,0,1,.92,4.76v19a12.89,12.89,0,0,1-12.8,12.5c-83-1.17-118.79-20.77-151.68-32.11a11.49,11.49,0,0,1-5.82-4.38,12.24,12.24,0,0,1-2.17-7.13v-24.18a9.36,9.36,0,0,1,1-3.91,9.08,9.08,0,0,1,2.56-3.07A8.56,8.56,0,0,1,2369,1707,8.26,8.26,0,0,1,2372.9,1707.18Z"/><path class="cls-71" d="M3544.85,1527.32c-66,26.67-169.82,43.22-227.08,50.83a46.89,46.89,0,0,0-29.53,16.35c-9,10.65-7.52,12-10.45,20.37,55.92,2.29,244.12-27.43,305.42-66.65a40.68,40.68,0,0,0-2.59-7.15,29.49,29.49,0,0,0-9.21-10.69,27.87,27.87,0,0,0-12.9-5A27.43,27.43,0,0,0,3544.85,1527.32Z"/><path class="cls-11" d="M2546.48,1567.05c2.26-5-.87-11.45-7-14.5s-12.94-1.52-15.21,3.43.86,11.45,7,14.5S2544.21,1572,2546.48,1567.05Z"/><path class="cls-11" d="M2578,1569.68c2.27-5-.86-11.44-7-14.49s-12.94-1.52-15.21,3.43.86,11.45,7,14.5S2575.73,1574.63,2578,1569.68Z"/><path class="cls-11" d="M2611.46,1572.5c2.27-5-.86-11.45-7-14.5s-12.95-1.52-15.22,3.43.87,11.45,7,14.5S2609.19,1577.45,2611.46,1572.5Z"/><path class="cls-72" d="M2198,1709.72a54,54,0,0,0,7.06,26.74,51.07,51.07,0,0,0,19.16,19.16c91.9,53.58,206.88,85.78,377,96.63h0c21.26,1.36,41.77-16,41.77-38.27V1591.76c0-34.83-28-59.65-62.41-59.4-128.18.91-247.5-43.15-327.45-78.14h0c-12.65-5.53-26.4-3-36.76,3.84s-18.37,18.61-18.37,32.79Zm0-2.67h-.6l8.2,3.6H2198Z"/><path class="cls-73" d="M3276,1627.19v159.72a38.94,38.94,0,0,0,2.86,14.79,37.56,37.56,0,0,0,8.27,12.4,35.37,35.37,0,0,0,12.26,8,34.5,34.5,0,0,0,14.29,2.31c75-4.1,180.4-32.68,235.3-52.08a50.48,50.48,0,0,0,24.66-19,53.82,53.82,0,0,0,9.37-30.45V1555.19a30.8,30.8,0,0,0-3.31-13.91,29.55,29.55,0,0,0-9.19-10.67,28,28,0,0,0-12.88-5,27.56,27.56,0,0,0-13.64,1.9c-65.92,26.63-169.55,43.15-226.73,50.76a46.73,46.73,0,0,0-29.48,16.32A50.63,50.63,0,0,0,3276,1627.19Z"/><path class="cls-74" d="M3320.81,1684.5v82.76a10.33,10.33,0,0,0,.77,3.85,9.16,9.16,0,0,0,2.17,3.22,9,9,0,0,0,6.93,2.63c23.73-1.61,70.53-9.26,89.61-13.58a9.45,9.45,0,0,0,5.39-3.48,10.09,10.09,0,0,0,2.06-6.22v-84.1a6.87,6.87,0,0,0-.66-3,6.38,6.38,0,0,0-7.49-3.57c-26.29,7.21-75.08,12.58-92.45,14.2a7,7,0,0,0-4.51,2.36A7.57,7.57,0,0,0,3320.81,1684.5Z"/><path class="cls-75" d="M3441.54,1672.12v21.48a5.43,5.43,0,0,0,6.05,5.55c31.82-4.51,82.42-20.14,98-28.06a5.32,5.32,0,0,0,2.86-4.77V1643.8a5.73,5.73,0,0,0-8-5.34c-35.34,16.23-80.05,25.33-94.33,28A5.72,5.72,0,0,0,3441.54,1672.12Z"/><path class="cls-76" d="M3446.11,1719a5.72,5.72,0,0,0-4.57,5.7v21.17a5.47,5.47,0,0,0,6.27,5.6c28.55-5,77.84-18.14,97.68-27.84a5.48,5.48,0,0,0,3-5v-22.23a5.72,5.72,0,0,0-8-5.34C3505.1,1707.3,3460.39,1716.39,3446.11,1719Z"/><path class="cls-11" d="M3555.2,1552.58c4.21-3.54,5.69-8.86,3.38-11.89s-7.66-2.61-11.86.92-5.73,8.86-3.38,11.89S3551,1556.11,3555.2,1552.58Z"/><path class="cls-11" d="M3531.71,1560c4.21-3.54,5.73-8.86,3.38-11.89s-7.66-2.61-11.83.92-5.73,8.86-3.38,11.89S3527.54,1563.56,3531.71,1560Z"/><path class="cls-11" d="M3508.29,1567.89c4.21-3.54,5.69-8.86,3.34-11.89s-7.62-2.61-11.83.92-5.72,8.86-3.38,11.89S3504.08,1571.42,3508.29,1567.89Z"/><g class="cls-77"><path class="cls-78" d="M3382.9-50.37h317.35v1422.3c-96.15-141.7-165.52-162.68-317.35-170.41Z"/></g><path class="cls-79" d="M3379.45,1212.89v175.2a33.07,33.07,0,0,0,7.45,20.93,30.71,30.71,0,0,0,18.73,10.86c84.85,14,283.37,82.95,294.62,198.63V1382c0-30.82-15.48-80.71-91.46-126.19-86.24-46.07-154.6-65.56-193.53-73.56a29,29,0,0,0-13.13.35,29.61,29.61,0,0,0-11.7,6.16,31.35,31.35,0,0,0-8.11,10.79A32.77,32.77,0,0,0,3379.45,1212.89Z"/><path class="cls-80" d="M3448.44,1257.1v-66.56c-16.93-4.39-20.74-5.62-33.13-8.2a28.62,28.62,0,0,0-13.14.36,29.58,29.58,0,0,0-11.76,6.19,30.84,30.84,0,0,0-8.08,10.83,32.33,32.33,0,0,0-2.88,13.41V1388.6a33.1,33.1,0,0,0,7.46,21,30.81,30.81,0,0,0,18.76,10.88c12.18,2,26.74,5.17,42.77,9.44Z"/><path class="cls-81" d="M3608.79,1256.27c-86.24-46.12-154.6-65.6-193.53-73.6a28.71,28.71,0,0,0-13.13.35,29.68,29.68,0,0,0-11.74,6.18,30.86,30.86,0,0,0-8.07,10.82,32.34,32.34,0,0,0-2.87,13.38v-1.29c64.73,4.4,291.26,64.59,320.8,189.3v-19C3700.25,1351.6,3684.77,1301.71,3608.79,1256.27Z"/><path class="cls-82" d="M3454.65,1307.67a1.57,1.57,0,0,1,1.69-1.44c32.22,3.18,83.93,24.43,130.87,53.76,23.49,14.68,45.88,31.43,64,49s32.25,36.08,39,54.31a1.6,1.6,0,0,1-.86,2.06,1.49,1.49,0,0,1-2-.91c-6.55-17.58-20.25-35.71-38.25-53.13s-40.16-34-63.51-48.62c-46.81-29.24-98.07-50.22-129.63-53.32A1.6,1.6,0,0,1,3454.65,1307.67Z"/><path class="cls-82" d="M3454.65,1376.08a1.57,1.57,0,0,1,1.65-1.45c32.22,2.95,83.41,22.43,129.57,49.16,23.11,13.37,45,28.61,62.68,44.56s31.25,32.67,37.49,49.12a1.62,1.62,0,0,1-.86,2.07,1.51,1.51,0,0,1-2-.9c-6-15.75-19.14-32.09-36.67-47.88s-39.18-30.88-62.16-44.19c-46-26.63-96.75-45.87-128.32-48.76A1.58,1.58,0,0,1,3454.65,1376.08Z"/><path class="cls-11" d="M3419.36,1203.71c1.59-2.57,0-6.59-3.59-9s-7.72-2.25-9.31.32,0,6.59,3.59,9S3417.81,1206.28,3419.36,1203.71Z"/><path class="cls-11" d="M3442.85,1210c1.59-2.57,0-6.59-3.59-9s-7.72-2.24-9.31.32,0,6.6,3.59,9S3441.26,1212.6,3442.85,1210Z"/><path class="cls-11" d="M3467.65,1218.1c1.59-2.57,0-6.59-3.58-9s-7.73-2.25-9.32.32,0,6.59,3.59,9S3466.1,1220.67,3467.65,1218.1Z"/><path class="cls-83" d="M3395.73,1263.61c13.63,1.88,29.46,4.78,38.5,8.32a5.49,5.49,0,0,1,2.93,2.08,6,6,0,0,1,1.14,3.5,5.68,5.68,0,0,1-.52,2.41,5.37,5.37,0,0,1-1.48,1.94,5,5,0,0,1-2.14,1.06,5,5,0,0,1-2.38,0c-11.28-2.77-25.87-6.38-37.08-7.55a5.45,5.45,0,0,1-3.52-1.89,5.73,5.73,0,0,1-1.38-3.85v-.43a5.23,5.23,0,0,1,.41-2.31,5.72,5.72,0,0,1,1.31-1.89,5.35,5.35,0,0,1,2-1.16A5.18,5.18,0,0,1,3395.73,1263.61Z"/><path class="cls-84" d="M3391.32,1288.83a.79.79,0,0,1,.82-.74,175.46,175.46,0,0,1,33.53,5.92.8.8,0,0,1,.55,1,.78.78,0,0,1-1,.56,173.15,173.15,0,0,0-33.22-5.87A.77.77,0,0,1,3391.32,1288.83Z"/><path class="cls-84" d="M3391.32,1304.32a.79.79,0,0,1,.82-.74,175.46,175.46,0,0,1,33.53,5.92.8.8,0,0,1,.55,1,.78.78,0,0,1-1,.56,173.15,173.15,0,0,0-33.22-5.87A.77.77,0,0,1,3391.32,1304.32Z"/><path class="cls-84" d="M3391.32,1321.77a.79.79,0,0,1,.82-.74,176.26,176.26,0,0,1,33.53,5.93.8.8,0,0,1-.41,1.54,175.52,175.52,0,0,0-33.22-5.88A.77.77,0,0,1,3391.32,1321.77Z"/><path class="cls-85" d="M3317.36,1007.32h351.85V2117.17c-109.28,57-130.53,101.33-351.85,160.09Z"/><path class="cls-86" d="M3318.39,2053.31a48.67,48.67,0,0,0-1,10.64v171.77a28.48,28.48,0,0,0,2.37,11.36,27.25,27.25,0,0,0,6.73,9.26,25.53,25.53,0,0,0,9.82,5.48,24.93,24.93,0,0,0,11.12.7c73-11.9,221.07-59.09,295.23-113.84a65.55,65.55,0,0,0,19.61-23.71,68.07,68.07,0,0,0,7-30.45V1930.76a25.59,25.59,0,0,0-3.44-12.82,24.23,24.23,0,0,0-9.33-9.09,22.87,22.87,0,0,0-24.55,1.79c-58.68,42.74-168.41,82.3-277.42,105.68C3337.15,2020,3322.73,2033.87,3318.39,2053.31Z"/><path class="cls-87" d="M3633.37,1909.82c-58.92,43-169.17,82.69-278.69,106.18-17.42,3.71-31.84,17.56-36.26,37a47.88,47.88,0,0,0-1.06,10.69v2.48c104.17-10.9,294.07-80.3,353.16-140.7a21.81,21.81,0,0,0-3.11-8.32A24.3,24.3,0,0,0,3658,1908a23,23,0,0,0-24.66,1.78Z"/><path class="cls-11" d="M3650.48,1930.85c3.72-5,4-11.21.72-13.88s-9-.8-12.69,4.2-4.07,11.21-.76,13.88S3646.75,1935.85,3650.48,1930.85Z"/><path class="cls-11" d="M3626.85,1945.26c3.72-5,4-11.21.72-13.89s-9-.79-12.69,4.2-4,11.21-.73,13.88S3623.12,1950.25,3626.85,1945.26Z"/><path class="cls-11" d="M3601.77,1960.57c3.69-5,4-11.21.72-13.89s-9-.79-12.72,4.2-4,11.21-.73,13.89S3598,1965.56,3601.77,1960.57Z"/><path class="cls-88" d="M3108.94,1232.33c14,0,25.35-11.84,25.35-26.44s-11.35-26.44-25.35-26.44-25.35,11.84-25.35,26.44S3094.93,1232.33,3108.94,1232.33Z"/><path class="cls-89" d="M3702.88,1795.43c14,0,25.35-11.84,25.35-26.44s-11.35-26.44-25.35-26.44-25.36,11.84-25.36,26.44S3688.87,1795.43,3702.88,1795.43Z"/><path class="cls-90" d="M2245.29,1893.23c16,0,28.91-13.5,28.91-30.15s-12.94-30.15-28.91-30.15-28.91,13.5-28.91,30.15S2229.33,1893.23,2245.29,1893.23Z"/><path class="cls-91" d="M3166,1278.27a9.42,9.42,0,1,0-9-9.41A9.24,9.24,0,0,0,3166,1278.27Z"/><path class="cls-92" d="M3624.4,1715.76a9.42,9.42,0,1,0-9-9.42A9.23,9.23,0,0,0,3624.4,1715.76Z"/><path class="cls-93" d="M3677.52,1887.32a9.43,9.43,0,1,0-9-9.42A9.25,9.25,0,0,0,3677.52,1887.32Z"/><path class="cls-94" d="M3048.78,1327.66c11.25,0,20.32-9.48,20.32-21.18s-9.07-21.18-20.32-21.18-20.28,9.48-20.28,21.18S3037.57,1327.66,3048.78,1327.66Z"/><path class="cls-95" d="M2291.5,1825.2c7.71,0,13.95-6.52,13.95-14.55s-6.24-14.55-13.95-14.55-13.95,6.51-13.95,14.55S2283.8,1825.2,2291.5,1825.2Z"/><path class="cls-96" d="M2168.67,3.6h282.86V2115.69l-282.86-45.62Z"/><path class="cls-97" d="M2198.28,2049.21c53.09,21.29,124.76,38.85,217.83,42.26,20.08-1.27,35.78,12.91,36.16,33.12l2.58,137.15c.21,11.51-10,21.88-21.29,21.75-111.28-1.29-186.14-19.18-246.15-52.29a28.15,28.15,0,0,1-10.83-10.64,30.47,30.47,0,0,1-4.06-15.06L2170,2070.66C2169.72,2055.9,2185.37,2044,2198.28,2049.21Z"/><path class="cls-98" d="M2416.11,2091.47c-96.64-3.19-157-20.14-217.83-42.26-14.53-5.28-25.94,8.23-27.12,13.94,34.63,25.31,134.13,60.23,280.55,56.24C2449.69,2103.86,2439.27,2091.47,2416.11,2091.47Z"/><path class="cls-99" d="M2299.77,2184l-33.25-36.91c-.39.35-.79.65-1.17,1-15.45,15.42-12.59,44,6.42,63.82a56.71,56.71,0,0,0,28.75,16.54C2300,2227.94,2299.77,2184,2299.77,2184Z"/><path class="cls-100" d="M2337.75,2173.38c-.48-12.4-6-25.69-16.29-36.43-18.55-19.35-45.59-23.15-61.25-9l33.32,36.9Z"/><path class="cls-101" d="M2334.11,2219.89c7.09-7.08,10.28-16.91,9.88-27.39l-44.22-8.51s.28,44,.83,44.47C2313.12,2231.13,2325.53,2228.43,2334.11,2219.89Z"/><path class="cls-11" d="M2398.24,2106.46c1-2.73-.9-6-4.13-7.25s-6.64-.09-7.6,2.64.91,6,4.15,7.25S2397.29,2109.19,2398.24,2106.46Z"/><path class="cls-11" d="M2432.52,2108.61c.94-2.72-.9-6-4.13-7.22s-6.6-.09-7.55,2.63.9,5.95,4.12,7.21S2431.57,2111.33,2432.52,2108.61Z"/><path class="cls-11" d="M2415.42,2107.55c.95-2.73-.91-6-4.15-7.25s-6.64-.1-7.59,2.63.9,6,4.14,7.25S2414.46,2110.28,2415.42,2107.55Z"/><path class="cls-102" d="M3426,2070.4v139.12c73.85-17.69,139-49.66,193.62-85.09"/><path class="cls-103" d="M3445.23,2139.79c7.87-33.57,27.74-77.13,40.05-81.78,10.62-7.14,25.25,53.37,33.87,58.76,8.63-3.59,29.74-86.46,44.54-90.18,7.76-1.94,17.93,1.07,37.67,18.21"/><path class="cls-104" d="M3489.11,2061.37c2.45-4.13,2.21-8.89-.55-10.65s-6.9.16-9.35,4.28-2.21,8.89.55,10.64S3486.66,2065.49,3489.11,2061.37Z"/><path class="cls-104" d="M3450.3,2143c2.56-4.35,2.31-9.38-.58-11.24s-7.32.16-9.87,4.52-2.31,9.38.55,11.23S3447.72,2147.3,3450.3,2143Z"/><path class="cls-105" d="M3567.52,2030.48c2.38-4.08,2.17-8.79-.56-10.53s-6.83.16-9.24,4.23-2.17,8.79.52,10.53S3565.1,2034.55,3567.52,2030.48Z"/><path class="cls-105" d="M3606,2048.77c2.21-3.71,2-8-.48-9.6s-6.24.14-8.45,3.86-2,8,.52,9.6S3603.84,2052.49,3606,2048.77Z"/><path class="cls-106" d="M3447,2171.92c8.38-10.18,18.73-24.57,37.29-35.35,12.69-7.36,33.59,10.37,41.8,3.59s21.22-52.86,33.91-55.37,34.91,12.15,40.71,20.36"/><path class="cls-107" d="M3567.1,2084.52c2.24-3.75,2-8.09-.48-9.69s-6.31.14-8.52,3.9-2,8.08.48,9.68S3564.89,2088.27,3567.1,2084.52Z"/><path class="cls-107" d="M3449.41,2176.5c2.13-3.6,1.93-7.77-.45-9.31s-6.07.14-8.21,3.74-1.93,7.78.48,9.32S3447.3,2180.11,3449.41,2176.5Z"/><path class="cls-107" d="M3488.8,2138.72c2.28-3.85,2.07-8.31-.48-10s-6.49.15-8.77,4-2.07,8.32.49,10S3486.52,2142.58,3488.8,2138.72Z"/><path class="cls-107" d="M3606.08,2109.36c2.24-3.77,2-8.12-.48-9.73s-6.35.14-8.56,3.91-2,8.12.49,9.73S3603.87,2113.12,3606.08,2109.36Z"/><g class="cls-108"><g class="cls-109"><path class="cls-110" d="M3272.51,2903.24v226.65"/><path class="cls-111" d="M2944.81,3442.87v-190l-79.34-82.9V3025.56"/><path class="cls-112" d="M2679.2,3439.28V3239.07l127.63-133.33V2757L2920.67,2638V2342"/><path class="cls-113" d="M3003.45,3525.62v-334.5l-72.44-75.7v-334.5"/><path class="cls-114" d="M3003.45,3047.14V2521.9"/><path class="cls-115" d="M2617.11,3439.28V3213.39L2744.74,3080v-384.4l89.69-93.71V2248.48"/><path class="cls-116" d="M2537.77,3442.87V3214.56l131.08-136.94v-444.2"/><path class="cls-117" d="M3258.72,3442.87v-228.3l131.08-136.94V2633.42"/><path class="cls-118" d="M2713.7,3004V2521.9"/><path class="cls-119" d="M3055.2,3435.68V2676.85l106.93-69.62V2363.6"/><path class="cls-120" d="M3095.66,2716.07l138.91-81.56v-137.8"/><path class="cls-121" d="M3117.29,2590.25V2392.38"/><path class="cls-122" d="M3106.94,3442.87v-641.5l207-136.47V2442.75"/><path class="cls-123" d="M3162.13,3439.28v-578l132.74-98.71"/><path class="cls-124" d="M3270.79,2901.44v230.24"/><path class="cls-125" d="M2943.09,3441.08V3252.87l-79.34-82.9V3023.76"/><path class="cls-126" d="M2680.92,3441.08v-202l127.64-133.33V2755.17l110.38-115.33V2340.22"/><path class="cls-127" d="M3005.18,3523.82v-332.7l-72.44-75.7v-336.3"/><path class="cls-128" d="M3001.73,3048.94V2520.1"/><path class="cls-129" d="M2615.38,3441.08V3213.39L2743,3080v-384.4l89.68-93.71V2246.68"/><path class="cls-130" d="M2539.5,3441.08V3214.56l131.08-136.94v-446"/><path class="cls-131" d="M3257,3441.08V3214.57l131.08-136.94v-446"/><path class="cls-132" d="M2712,3005.77V2520.1"/><path class="cls-133" d="M3053.47,3437.48V2676.85l106.94-69.62V2361.8"/><path class="cls-134" d="M3093.93,2716.07l138.92-124.42v-96.74"/><path class="cls-135" d="M3115.56,2592.05V2394.18"/><path class="cls-136" d="M3105.21,3444.67v-643.3l207-136.47V2444.55"/><path class="cls-137" d="M3160.41,3441.08V2861.26l66.36-49.36,26.32-18.78"/><path class="cls-138" d="M2670.46,2645.21c13.2,0,23.91-11.18,23.91-25s-10.71-25-23.91-25-23.9,11.19-23.9,25S2657.26,2645.21,2670.46,2645.21Z"/><path class="cls-139" d="M3387.94,2645.21c13.21,0,23.9-11.18,23.9-25s-10.69-25-23.9-25-23.91,11.19-23.91,25S3374.72,2645.21,3387.94,2645.21Z"/><path class="cls-11" d="M3003.37,2540.36c10.6,0,19.19-9,19.19-20.05s-8.59-20.06-19.19-20.06-19.19,9-19.19,20.06S2992.77,2540.36,3003.37,2540.36Z"/><path class="cls-140" d="M3307.42,2768.68c7.56,0,13.66-6.39,13.66-14.28s-6.1-14.28-13.66-14.28-13.66,6.39-13.66,14.28S3299.87,2768.68,3307.42,2768.68Z"/><path class="cls-11" d="M3219.22,3140.14c7.55,0,13.66-6.39,13.66-14.28s-6.11-14.28-13.66-14.28-13.66,6.4-13.66,14.28S3211.67,3140.14,3219.22,3140.14Z"/><path class="cls-141" d="M2931.56,2799c12.66,0,22.92-10.73,22.92-23.95s-10.26-24-22.92-24-22.93,10.72-22.93,24S2918.9,2799,2931.56,2799Z"/><path class="cls-142" d="M2931.56,2789.36c7.56,0,13.69-6.41,13.69-14.31s-6.13-14.31-13.69-14.31-13.7,6.41-13.7,14.31S2924,2789.36,2931.56,2789.36Z"/><path class="cls-143" d="M2865.21,3038.26c9.54,0,17.27-8.08,17.27-18.05s-7.73-18-17.27-18-17.26,8.08-17.26,18S2855.68,3038.26,2865.21,3038.26Z"/><path class="cls-144" d="M3272.14,2918.37c11,0,19.9-9.31,19.9-20.8s-8.94-20.81-19.9-20.81-19.94,9.31-19.94,20.81S3261.13,2918.37,3272.14,2918.37Z"/><path class="cls-140" d="M2713,2521.84a11.35,11.35,0,1,0-10.85-11.34A11.11,11.11,0,0,0,2713,2521.84Z"/></g><g class="cls-145"><path class="cls-146" d="M2121.52,2485.92H3749.71c-187.09,6.94-321.45,79.38-277.12,196.9v803.23c0,19.86-15.45,36-34.5,36H2527.42c-19.05,0-34.49-16.11-34.49-36V2682.82C2516.08,2583.7,2345.92,2490.78,2121.52,2485.92Z"/></g></g><ellipse class="cls-147" cx="2507.29" cy="2226.03" rx="6.35" ry="49.86" transform="translate(-25.25 4423.29) rotate(-82.54)"/><ellipse class="cls-11" cx="2507.29" cy="2226.03" rx="6.35" ry="49.86" transform="translate(-25.25 4423.29) rotate(-82.54)"/><path class="cls-148" d="M2075.54,2374c103.48-197.87,569.16-215.85,724.39,0"/><ellipse class="cls-149" cx="2982.26" cy="2240.9" rx="6.35" ry="49.83" transform="translate(607.57 5117.78) rotate(-87.38)"/><ellipse class="cls-11" cx="2982.26" cy="2240.9" rx="6.35" ry="49.83" transform="translate(607.57 5117.78) rotate(-87.38)"/><path class="cls-150" d="M2590.24,2395.73c103.48-197.87,569.17-215.86,724.39,0"/><ellipse class="cls-151" cx="2250.3" cy="2280.18" rx="3.85" ry="30.2" transform="translate(-130.21 4424.06) rotate(-87.38)"/><ellipse class="cls-11" cx="2250.3" cy="2280.18" rx="3.85" ry="30.2" transform="translate(-130.21 4424.06) rotate(-87.38)"/><path class="cls-152" d="M2012.75,2374c62.7-119.9,344.9-130.8,439,0"/><ellipse class="cls-11" cx="3602.25" cy="2204.94" rx="5.63" ry="66.48" transform="translate(1045.46 5566.61) rotate(-84.22)"/><ellipse class="cls-153" cx="3602.25" cy="2204.94" rx="5.63" ry="66.48" transform="translate(1045.46 5566.61) rotate(-84.22)"/><path class="cls-154" d="M3191.9,2392.26c103.49-243.77,569.17-265.93,724.4,0"/><ellipse class="cls-155" cx="3394.63" cy="2278.53" rx="5.72" ry="44.99" transform="translate(490.64 5156.39) rotate(-78.61)"/><ellipse class="cls-11" cx="3394.63" cy="2278.53" rx="5.72" ry="44.99" transform="translate(490.64 5156.39) rotate(-78.61)"/><path class="cls-156" d="M3105.7,2367.71c64-122.27,351.71-133.39,447.64,0"/><path class="cls-157" d="M2033.17,2370.8H3876.94c26.13,0,47.32,21.74,47.32,48.57h0c0,26.82-21.19,48.56-47.32,48.56H2033.17c-26.13,0-47.32-21.74-47.32-48.56h0C1985.85,2392.54,2007,2370.8,2033.17,2370.8Z"/><path class="cls-158" d="M2168.67,2467.93h1755.8"/><ellipse class="cls-159" cx="2151.43" cy="2467.54" rx="37.94" ry="10.79"/></g></svg>